HIERARCHY
ROOT Hips
{
 OFFSET 0.000000 0.000000 0.000000
 CHANNELS 6 Xposition Yposition Zposition Yrotation Xrotation Zrotation
 JOINT Chest
 {
  OFFSET 0.000000 10.080317 -0.001081
  CHANNELS 3 Yrotation Xrotation Zrotation
  JOINT Chest2
  {
   OFFSET 0.000000 11.096852 0.001963
   CHANNELS 3 Yrotation Xrotation Zrotation
   JOINT Chest3
   {
    OFFSET 0.000000 10.026525 0.000000
    CHANNELS 3 Yrotation Xrotation Zrotation
    JOINT Chest4
    {
     OFFSET 0.000000 10.026525 0.000000
     CHANNELS 3 Yrotation Xrotation Zrotation
     JOINT Neck
     {
      OFFSET 0.000000 14.108171 0.000000
      CHANNELS 3 Yrotation Xrotation Zrotation
      JOINT Head
      {
       OFFSET 0.000000 9.333493 0.004668
       CHANNELS 3 Yrotation Xrotation Zrotation
       End Site
       {
        OFFSET 0.000000 17.851786 0.002438
       }
      }
     }
     JOINT RightCollar
     {
      OFFSET -3.071622 7.873185 0.000000
      CHANNELS 3 Yrotation Xrotation Zrotation
      JOINT RightShoulder
      {
       OFFSET -14.378659 0.000000 0.000000
       CHANNELS 3 Yrotation Xrotation Zrotation
       JOINT RightElbow
       {
        OFFSET -30.778728 0.000000 0.000000
        CHANNELS 3 Yrotation Xrotation Zrotation
        JOINT RightWrist
        {
         OFFSET -25.164217 0.000000 0.000000
         CHANNELS 3 Yrotation Xrotation Zrotation
         End Site
         {
          OFFSET -18.796788 0.000000 0.000000
         }
        }
       }
      }
     }
     JOINT LeftCollar
     {
      OFFSET 3.071622 7.873185 0.000000
      CHANNELS 3 Yrotation Xrotation Zrotation
      JOINT LeftShoulder
      {
       OFFSET 14.378659 0.000000 0.000000
       CHANNELS 3 Yrotation Xrotation Zrotation
       JOINT LeftElbow
       {
        OFFSET 30.778728 0.000000 0.000000
        CHANNELS 3 Yrotation Xrotation Zrotation
        JOINT LeftWrist
        {
         OFFSET 25.164217 0.000000 0.000000
         CHANNELS 3 Yrotation Xrotation Zrotation
         End Site
         {
          OFFSET 18.796788 0.000000 0.000000
         }
        }
       }
      }
     }
    }
   }
  }
 }
 JOINT RightHip
 {
  OFFSET -8.194923 0.005295 0.000540
  CHANNELS 3 Yrotation Xrotation Zrotation
  JOINT RightKnee
  {
   OFFSET 0.000000 -42.473320 -0.000511
   CHANNELS 3 Yrotation Xrotation Zrotation
   JOINT RightAnkle
   {
    OFFSET 0.000000 -41.474259 -0.000865
    CHANNELS 3 Yrotation Xrotation Zrotation
    JOINT RightToe
    {
     OFFSET 0.000000 -7.354994 16.712725
     CHANNELS 3 Yrotation Xrotation Zrotation
     End Site
     {
      OFFSET 0.000000 -1.553903 6.764158
     }
    }
   }
  }
 }
 JOINT LeftHip
 {
  OFFSET 8.194923 0.005295 0.000540
  CHANNELS 3 Yrotation Xrotation Zrotation
  JOINT LeftKnee
  {
   OFFSET 0.000000 -42.473320 -0.000511
   CHANNELS 3 Yrotation Xrotation Zrotation
   JOINT LeftAnkle
   {
    OFFSET 0.000000 -41.474259 -0.000865
    CHANNELS 3 Yrotation Xrotation Zrotation
    JOINT LeftToe
    {
     OFFSET 0.000000 -7.354994 16.712725
     CHANNELS 3 Yrotation Xrotation Zrotation
     End Site
     {
      OFFSET 0.000000 -1.553903 6.764158
     }
    }
   }
  }
 }
}
MOTION
Frames: 10
Frame Time: 0.016667
0.000000 91.111157 0.000000 0.000000 -5.826342 0.000000 0.000000 11.116423 0.000000 0.000000 -5.290081 0.000000 0.000000 0.000000 0.000000 0.000000 0.000000 0.000000 0.000000 12.665069 0.000000 0.000000 0.575450 0.000000 0.000000 0.000000 0.000000 0.000000 0.000000 0.000000 2.337306 0.000000 0.000000 -2.337306 0.000000 0.000000 0.000000 0.000000 0.000000 0.000000 0.000000 0.000000 -2.337306 0.000000 0.000000 2.337306 0.000000 0.000000 0.000000 8.578828 0.000000 0.000000 1.905768 0.000000 0.000000 -4.658254 0.000000 0.000000 0.000000 0.000000 0.000000 8.578828 0.000000 0.000000 1.905768 0.000000 0.000000 -4.658254 0.000000 0.000000 0.000000 0.000000
-46.227657 92.873132 50.592787 0.627267 -5.721938 -0.185870 0.280843 2.721311 -0.457368 0.135683 1.209365 -0.264855 0.135683 1.209365 -0.264855 0.102283 0.906965 -0.198902 -2.589299 19.057560 2.359408 -5.492356 -0.628112 5.144500 -2.176933 0.724393 10.868381 -4.296995 -1.514949 71.947519 15.647625 16.732243 9.418091 -3.886321 1.308874 -7.451619 -2.773385 0.516443 -5.381782 -2.412348 -7.361923 -71.398911 -12.836349 22.611645 -15.791532 4.225801 3.319350 14.445866 -8.050935 10.955816 -2.238729 -5.676644 -0.646034 0.655661 -17.412185 -2.461179 2.801973 -0.118537 0.181135 -0.134304 1.484118 11.936583 2.797736 -1.472395 1.551307 0.209691 -0.517848 -6.253446 -2.020000 0.105768 -0.168989 -0.005132
-46.276010 92.877717 50.543065 0.534722 -5.721776 -0.184987 0.251913 2.675739 -0.445108 0.121492 1.189771 -0.259095 0.121492 1.189771 -0.259095 0.091620 0.892277 -0.194551 -2.596185 19.081260 2.348195 -5.500090 -0.584455 5.124819 -2.190326 0.708636 10.864387 -4.314052 -1.588389 71.877599 15.845032 16.610133 9.526287 -3.791525 1.304249 -7.537485 -2.825070 0.517286 -5.432634 -2.402584 -7.491993 -71.372408 -12.993354 22.534599 -15.858872 4.217435 3.325406 14.489519 -8.021804 10.891205 -2.209489 -5.619853 -0.596061 0.641719 -17.371859 -2.463999 2.779515 -0.113701 0.175577 -0.122070 1.555775 11.866360 2.843484 -1.436210 1.640006 0.193133 -0.539469 -6.268941 -2.029658 0.103145 -0.165985 -0.007904
-46.322142 92.882288 50.496559 0.421997 -5.733789 -0.185094 0.224196 2.635546 -0.432478 0.108874 1.172694 -0.253525 0.108874 1.172694 -0.253525 0.082139 0.879475 -0.190346 -2.595651 19.098558 2.331843 -5.492988 -0.553504 5.093758 -2.186171 0.702461 10.868697 -4.336253 -1.677529 71.788035 16.055467 16.507526 9.655073 -3.712164 1.313696 -7.611511 -2.867564 0.529276 -5.475741 -2.395821 -7.649831 -71.357836 -13.139687 22.449362 -15.927772 4.219921 3.327177 14.527059 -7.986839 10.846722 -2.182096 -5.576566 -0.561744 0.638782 -17.306429 -2.467422 2.746954 -0.112674 0.174901 -0.113038 1.614121 11.822383 2.880104 -1.365855 1.713307 0.189018 -0.563902 -6.281107 -2.050354 0.101929 -0.164963 -0.006304
-46.365936 92.884157 50.457226 0.302110 -5.755911 -0.184229 0.193764 2.599091 -0.421766 0.095062 1.156682 -0.250103 0.095062 1.156682 -0.250103 0.071767 0.867473 -0.187751 -2.589167 19.114431 2.314419 -5.474751 -0.525655 5.058947 -2.189198 0.699820 10.893606 -4.348975 -1.752734 71.676047 16.264393 16.433740 9.795179 -3.635075 1.329737 -7.652017 -2.892918 0.543963 -5.522957 -2.429661 -7.779986 -71.329715 -13.278808 22.352031 -15.997279 4.216594 3.326457 14.561782 -7.962798 10.805211 -2.162816 -5.523187 -0.508477 0.636452 -17.271991 -2.480307 2.722644 -0.110344 0.173292 -0.106121 1.678907 11.801109 2.912610 -1.291894 1.772908 0.187413 -0.583543 -6.292218 -2.075677 0.100170 -0.166187 -0.000575
-46.409132 92.884624 50.422098 0.166180 -5.792513 -0.185958 0.171901 2.568201 -0.407406 0.084341 1.143353 -0.246189 0.084341 1.143353 -0.246189 0.063714 0.857481 -0.184793 -2.580810 19.119728 2.286928 -5.450495 -0.518199 5.005732 -2.179955 0.701348 10.909099 -4.360843 -1.828958 71.587681 16.470694 16.376973 9.927401 -3.564784 1.326299 -7.684435 -2.937118 0.550710 -5.578997 -2.427539 -7.904423 -71.305462 -13.434352 22.266931 -16.076198 4.221471 3.340217 14.604994 -7.912952 10.776847 -2.142600 -5.488973 -0.445520 0.641996 -17.244567 -2.508377 2.697474 -0.109681 0.179028 -0.101121 1.773679 11.804774 2.950904 -1.234854 1.821716 0.187638 -0.594623 -6.312096 -2.097828 0.099375 -0.161761 0.001069
-46.453481 92.882573 50.393638 0.035982 -5.831485 -0.205348 0.144515 2.548148 -0.377320 0.073023 1.133996 -0.242629 0.073023 1.133996 -0.242629 0.055216 0.850468 -0.182101 -2.569816 19.113364 2.258631 -5.421794 -0.532579 4.950861 -2.146126 0.687898 10.929347 -4.362921 -1.907132 71.510869 16.635527 16.322139 10.034168 -3.532952 1.321055 -7.694193 -2.958047 0.558000 -5.621016 -2.445340 -8.025236 -71.304754 -13.597125 22.214982 -16.143171 4.217609 3.328752 14.619081 -7.876241 10.757559 -2.100492 -5.436576 -0.382089 0.643058 -17.268443 -2.558966 2.676621 -0.111002 0.203438 -0.098937 1.846775 11.818484 3.005996 -1.143405 1.861948 0.182351 -0.616625 -6.317684 -2.115311 0.096366 -0.173333 0.000388
-46.499886 92.879321 50.361892 -0.107524 -5.866528 -0.206350 0.126806 2.516990 -0.373935 0.063352 1.120463 -0.241424 0.063352 1.120463 -0.241424 0.047955 0.840323 -0.181179 -2.550749 19.112894 2.228409 -5.377395 -0.536646 4.889590 -2.145031 0.709652 10.961607 -4.352630 -1.984670 71.460472 16.784794 16.305215 10.130165 -3.510769 1.322357 -7.712590 -2.981164 0.573464 -5.644376 -2.421604 -8.130951 -71.290643 -13.773516 22.171481 -16.261657 4.202778 3.316392 14.665632 -7.818561 10.730842 -2.068129 -5.380696 -0.324103 0.625985 -17.258229 -2.586307 2.660532 -0.106820 0.210897 -0.094147 1.921845 11.838229 3.045903 -1.066241 1.885373 0.174661 -0.620295 -6.340499 -2.138832 0.095864 -0.161817 0.003458
-46.543769 92.876809 50.337754 -0.256443 -5.900796 -0.184309 0.111651 2.486495 -0.389007 0.054360 1.106358 -0.240038 0.054360 1.106358 -0.240038 0.041203 0.829748 -0.180121 -2.533323 19.113738 2.193116 -5.334320 -0.538466 4.819486 -2.149036 0.727637 10.976907 -4.329584 -2.043778 71.422505 16.899177 16.264366 10.235264 -3.513237 1.332203 -7.735164 -2.997310 0.618762 -5.672381 -2.428100 -8.238167 -71.278885 -13.940047 22.130083 -16.372923 4.185184 3.294958 14.715088 -7.739403 10.705258 -2.058951 -5.345085 -0.267637 0.610182 -17.205253 -2.593775 2.645406 -0.102952 0.193831 -0.089222 1.996149 11.874470 3.060512 -0.999177 1.888511 0.170664 -0.611853 -6.370757 -2.170494 0.095350 -0.139741 0.011067
-46.591209 92.873704 50.313153 -0.402487 -5.930647 -0.179728 0.099378 2.452500 -0.388601 0.047401 1.091727 -0.239324 0.047401 1.091727 -0.239324 0.035978 0.818777 -0.179572 -2.510217 19.117641 2.158491 -5.280907 -0.534887 4.748644 -2.144023 0.748697 10.997652 -4.319830 -2.087065 71.429508 16.972284 16.236287 10.270516 -3.508471 1.322650 -7.715872 -3.031387 0.650812 -5.706722 -2.429076 -8.314212 -71.268891 -14.089826 22.063420 -16.469782 4.175733 3.307710 14.771636 -7.661681 10.681552 -2.037488 -5.289904 -0.213533 0.617902 -17.192551 -2.634904 2.618214 -0.100821 0.202255 -0.087823 2.059268 11.914244 3.094698 -0.883308 1.871303 0.163185 -0.637182 -6.369990 -2.210950 0.095161 -0.136384 0.023892
